#!OML:ASF H:\IndianDance\Patient Classification 1\Patient 1\Session 1\dancer.ASF
:FULLY-SPECIFIED
:DEGREES
2097
root 29.2237 14.8603 7.34613 -177.225 -12.993 -176.381
lowerback 6.28211 4.14413 1.71587
upperback -3.32699 5.55706 -1.79173
thorax -6.65379 2.6007 -3.48128
lowerneck -13.4211 13.3683 6.19694
upperneck 39.0178 11.981 8.65308
head 15.9707 6.12701 4.46372
rclavicle -9.04035e-014 -1.74931e-014
rhumerus -17.1316 56.992 -39.3127
rradius 111.735
rwrist -9.82861
rhand -2.07531 15.0729
rfingers 7.12502
rthumb 23.6012 346.501
lclavicle -9.04035e-014 -1.74931e-014
lhumerus 3.9786 -5.65981 15.247
lradius 29.2166
lwrist -7.04385
lhand -7.95134 8.32633
lfingers 7.12502
lthumb 17.9557 -322.483
rfemur -383.973 -12.2429 374.472
rtibia 56.6342
rfoot -16.78 4.64335
rtoes -16.1341
lfemur -206.827 176.443 -188.428
ltibia 45.2839
lfoot -17.0891 2.74912
ltoes -14.4721
2098
root 29.3283 14.8935 7.33376 -177.127 -13.825 -176.278
lowerback 6.05592 3.96213 1.74812
upperback -3.42651 5.31155 -1.77279
thorax -6.64458 2.47677 -3.43896
lowerneck -13.4874 13.2839 6.0972
upperneck 38.9926 11.8855 8.67564
head 15.963 6.07906 4.47474
rclavicle -1.31012e-014 7.15625e-015
rhumerus -17.9854 56.4274 -40.321
rradius 111.948
rwrist -11.2789
rhand -0.689309 14.4815
rfingers 7.12502
rthumb 24.93 346.087
lclavicle -1.31012e-014 7.15625e-015
lhumerus 3.95438 -5.00028 15.8875
lradius 29.1322
lwrist -6.64405
lhand -8.107 8.54753
lfingers 7.12502
lthumb 17.8059 -322.248
rfemur -382.925 -11.1596 374.443
rtibia 54.7585
rfoot -17.2341 5.13168
rtoes -17.756
lfemur -206.769 176.837 -187.948
ltibia 44.3369
lfoot -16.6404 2.36057
ltoes -14.8777
2099
root 29.4346 14.9245 7.32164 -177.039 -14.6768 -176.149
lowerback 5.83831 3.78284 1.78997
upperback -3.52385 5.07088 -1.74543
thorax -6.63756 2.35486 -3.39533
lowerneck -13.558 13.1903 5.99634
upperneck 38.9536 11.7849 8.68535
head 15.9507 6.02837 4.47907
rclavicle 1.47939e-014 1.35174e-014
rhumerus -18.9372 55.8075 -41.4333
rradius 112.17
rwrist -12.9101
rhand 0.856102 13.7959
rfingers 7.12502
rthumb 26.4101 345.616
lclavicle 1.47939e-014 1.35174e-014
lhumerus 3.91994 -4.33057 16.5973
lradius 29.0582
lwrist -6.20641
lhand -8.27621 8.75773
lfingers 7.12502
lthumb 17.6431 -322.023
rfemur -381.892 -10.1286 374.544
rtibia 52.9562
rfoot -17.7336 6.08005
rtoes -19.1059
lfemur -206.753 177.28 -187.435
ltibia 43.4367
lfoot -16.1813 1.93164
ltoes -14.8642
2100
root 29.5427 14.953 7.30994 -176.967 -15.5396 -175.993
lowerback 5.63455 3.60992 1.84481
upperback -3.61552 4.8403 -1.71142
thorax -6.63131 2.2375 -3.35483
lowerneck -13.6319 13.0893 5.89686
upperneck 38.8975 11.6801 8.68671
head 15.9316 5.97663 4.47805
rclavicle -4.98018e-014 2.46493e-014
rhumerus -19.9819 55.129 -42.6483
rradius 112.392
rwrist -14.7038
rhand 2.52152 13.0228
rfingers 7.12502
rthumb 28.0032 345.092
lclavicle -4.98018e-014 2.46493e-014
lhumerus 3.88594 -3.6567 17.3729
lradius 28.9872
lwrist -5.74012
lhand -8.41757 8.96186
lfingers 7.12502
lthumb 17.507 -321.806
rfemur -380.89 -9.17305 374.786
rtibia 51.2536
rfoot -18.2549 7.26124
rtoes -19.9266
lfemur -206.777 177.769 -186.887
ltibia 42.5923
lfoot -15.695 1.50618
ltoes -14.5693
2101
root 29.652 14.9791 7.29861 -176.918 -16.4012 -175.823
lowerback 5.44544 3.44668 1.90454
upperback -3.69508 4.62348 -1.67429
thorax -6.61964 2.12708 -3.31659
lowerneck -13.7063 12.9815 5.8002
upperneck 38.819 11.5737 8.67646
head 15.9029 5.92506 4.46987
rclavicle -1.80758e-014 1.66979e-014
rhumerus -21.1006 54.3967 -43.9529
rradius 112.599
rwrist -16.606
rhand 4.25012 12.1847
rfingers 7.12502
rthumb 29.6545 344.535
lclavicle -1.80758e-014 1.66979e-014
lhumerus 3.85016 -2.97417 18.2211
lradius 28.9155
lwrist -5.23456
lhand -8.54046 9.16809
lfingers 7.12502
lthumb 17.3887 -321.59
rfemur -379.925 -8.31818 375.154
rtibia 49.6547
rfoot -18.7704 8.41233
rtoes -20.0933
lfemur -206.828 178.296 -186.323
ltibia 41.8085
lfoot -15.176 1.09424
ltoes -13.9339
2102
root 29.7619 15.0031 7.28756 -176.896 -17.2483 -175.635
lowerback 5.27265 3.2989 1.97269
upperback -3.76133 4.42879 -1.63219
thorax -6.6016 2.02773 -3.28143
lowerneck -13.7775 12.8641 5.70919
upperneck 38.7174 11.4604 8.65475
head 15.8639 5.87171 4.45296
rclavicle 1.45998e-014 -1.59028e-015
rhumerus -22.2902 53.614 -45.338
rradius 112.781
rwrist -18.5423
rhand 5.99019 11.3067
rfingers 7.12502
rthumb 31.314 343.966
lclavicle 1.45998e-014 -1.59028e-015
lhumerus 3.8154 -2.28402 19.1494
lradius 28.8378
lwrist -4.68694
lhand -8.63837 9.3794
lfingers 7.12502
lthumb 17.2945 -321.37
rfemur -378.997 -7.56994 375.644
rtibia 48.1434
rfoot -19.2562 9.28206
rtoes -19.6995
lfemur -206.896 178.852 -185.742
ltibia 41.0859
lfoot -14.6183 0.70755
ltoes -12.907
2103
root 29.8723 15.0253 7.27698 -176.904 -18.0778 -175.434
lowerback 5.11597 3.16651 2.04848
upperback -3.81093 4.25597 -1.58866
thorax -6.57337 1.93949 -3.25226
lowerneck -13.8476 12.7413 5.62221
upperneck 38.5965 11.3423 8.63081
head 15.816 5.81831 4.43229
rclavicle -4.02353e-014 -1.27222e-014
rhumerus -23.5304 52.7826 -46.7915
rradius 112.922
rwrist -20.4244
rhand 7.67941 10.4297
rfingers 7.12502
rthumb 32.9222 343.413
lclavicle -4.02353e-014 -1.27222e-014
lhumerus 3.78392 -1.57956 20.1565
lradius 28.7484
lwrist -4.10786
lhand -8.71038 9.59786
lfingers 7.12502
lthumb 17.2252 -321.146
rfemur -378.1 -6.93452 376.238
rtibia 46.6911
rfoot -19.7324 9.6791
rtoes -19.0084
lfemur -206.974 179.421 -185.153
ltibia 40.419
lfoot -14.0251 0.363169
ltoes -11.6174
2104
root 29.9825 15.0462 7.26686 -176.943 -18.8793 -175.219
lowerback 4.9747 3.05034 2.13537
upperback -3.84349 4.10673 -1.5405
thorax -6.53407 1.86319 -3.22764
lowerneck -13.9193 12.6135 5.53772
upperneck 38.4611 11.2202 8.60333
head 15.7623 5.76445 4.40834
rclavicle -1.09723e-013 4.77083e-015
rhumerus -24.7979 51.913 -48.295
rradius 113.008
rwrist -22.1791
rhand 9.26824 9.5951
rfingers 7.12502
rthumb 34.432 342.908
lclavicle -1.09723e-013 4.77083e-015
lhumerus 3.7537 -0.808375 21.2656
lradius 28.6255
lwrist -3.54879
lhand -8.75176 9.80056
lfingers 7.12502
lthumb 17.1854 -320.939
rfemur -377.225 -6.39771 376.918
rtibia 45.2652
rfoot -20.2202 9.58294
rtoes -18.2249
lfemur -207.051 179.978 -184.56
ltibia 39.8025
lfoot -13.4041 0.07829
ltoes -10.1752
2105
root 30.0923 15.0664 7.25729 -177.009 -19.651 -174.995
lowerback 4.84688 2.95092 2.22745
upperback -3.86059 3.98099 -1.4903
thorax -6.48451 1.79897 -3.20679
lowerneck -13.9939 12.4806 5.44726
upperneck 38.3156 11.0906 8.58458
head 15.7035 5.70871 4.38727
rclavicle 5.27121e-014 -4.77083e-015
rhumerus -26.0812 51.0022 -49.8467
rradius 113.022
rwrist -23.7497
rhand 10.7446 8.83347
rfingers 7.12502
rthumb 35.8323 342.476
lclavicle 5.27121e-014 -4.77083e-015
lhumerus 3.71374 -0.00206085 22.4666
lradius 28.4869
lwrist -2.98448
lhand -8.77507 10.0397
lfingers 7.12502
lthumb 17.1629 -320.698
rfemur -376.367 -5.9464 377.659
rtibia 43.8425
rfoot -20.7139 9.13263
rtoes -17.27
lfemur -207.126 180.508 -183.978
ltibia 39.2303
lfoot -12.7523 -0.136846
ltoes -8.63247
2106
root 30.2013 15.0859 7.24843 -177.099 -20.3876 -174.764
lowerback 4.73737 2.86553 2.32304
upperback -3.86824 3.87505 -1.43634
thorax -6.43431 1.74476 -3.18707
lowerneck -14.0718 12.3466 5.35888
upperneck 38.1703 10.9557 8.57244
head 15.6458 5.65197 4.36828
rclavicle -3.08054e-014 2.38542e-015
rhumerus -27.365 50.0673 -51.4386
rradius 112.961
rwrist -25.1014
rhand 12.0853 8.16435
rfingers 7.12502
rthumb 37.1014 342.126
lclavicle -3.08054e-014 2.38542e-015
lhumerus 3.64788 0.847758 23.7565
lradius 28.3284
lwrist -2.44422
lhand -8.83133 10.2656
lfingers 7.12502
lthumb 17.1088 -320.468
rfemur -375.525 -5.56651 378.442
rtibia 42.4158
rfoot -21.1905 8.46096
rtoes -16.1488
lfemur -207.198 180.967 -183.418
ltibia 38.7041
lfoot -12.0849 -0.268757
ltoes -7.21243
2107
root 30.3093 15.1048 7.24045 -177.21 -21.0827 -174.525
lowerback 4.64695 2.79493 2.4233
upperback -3.87004 3.78997 -1.37855
thorax -6.38762 1.70085 -3.16921
lowerneck -14.154 12.2139 5.26979
upperneck 38.0326 10.8158 8.57368
head 15.5925 5.59442 4.35531
rclavicle 1.57537e-014 1.82882e-014
rhumerus -28.6423 49.1119 -53.0688
rradius 112.814
rwrist -26.2319
rhand 13.2828 7.59923
rfingers 7.12502
rthumb 38.2329 341.864
lclavicle 1.57537e-014 1.82882e-014
lhumerus 3.54209 1.73677 25.1332
lradius 28.1571
lwrist -1.95393
lhand -8.89542 10.5279
lfingers 7.12502
lthumb 17.0471 -320.2
rfemur -374.696 -5.23029 379.25
rtibia 40.9922
rfoot -21.622 7.64926
rtoes -14.9038
lfemur -207.27 181.303 -182.894
ltibia 38.2344
lfoot -11.4218 -0.314224
ltoes -6.05681
2108
root 30.4161 15.1229 7.23368 -177.327 -21.7372 -174.292
lowerback 4.57447 2.73469 2.51709
upperback -3.87257 3.71846 -1.32097
thorax -6.3516 1.66367 -3.15057
lowerneck -14.2381 12.0839 5.17849
upperneck 37.901 10.6736 8.58923
head 15.5419 5.53701 4.34893
rclavicle 4.93669e-014 -2.14687e-014
rhumerus -29.902 48.1459 -54.7381
rradius 112.58
rwrist -27.159
rhand 14.321 7.12664
rfingers 7.12502
rthumb 39.2121 341.668
lclavicle 4.93669e-014 -2.14687e-014
lhumerus 3.37345 2.63357 26.5716
lradius 27.9857
lwrist -1.49547
lhand -8.96787 10.8039
lfingers 7.12502
lthumb 16.9774 -319.918
rfemur -373.896 -4.91526 380.056
rtibia 39.5936
rfoot -22.0011 6.77139
rtoes -13.5599
lfemur -207.364 181.471 -182.437
ltibia 37.8451
lfoot -10.7582 -0.261962
ltoes -5.31407
2109
root 30.5216 15.1402 7.22821 -177.445 -22.3441 -174.069
lowerback 4.52114 2.68963 2.60417
upperback -3.88091 3.66667 -1.26784
thorax -6.33159 1.63588 -3.13615
lowerneck -14.3227 11.9544 5.09419
upperneck 37.7803 10.5221 8.61737
head 15.4973 5.47734 4.34623
rclavicle 1.40702e-014 -2.46493e-014
rhumerus -31.1586 47.1688 -56.4525
rradius 112.256
rwrist -27.909
rhand 15.179 6.7382
rfingers 7.12502
rthumb 40.0201 341.518
lclavicle 1.40702e-014 -2.46493e-014
lhumerus 3.12386 3.46387 28.0462
lradius 27.8402
lwrist -1.02493
lhand -9.09594 11.0996
lfingers 7.12502
lthumb 16.8541 -319.612
rfemur -373.14 -4.6 380.843
rtibia 38.2459
rfoot -22.3359 5.90626
rtoes -12.1285
lfemur -207.493 181.438 -182.061
ltibia 37.5703
lfoot -10.0966 -0.132538
ltoes -4.65282
